<svg width="120" height="120" viewBox="0 0 120 120" xmlns="http://www.w3.org/2000/svg">
  <!-- Background -->
  <rect width="120" height="120" fill="#000000"/>
  
  <!-- Leaf -->
  <path d="M 30 80 Q 25 60, 30 40 Q 35 25, 45 30 Q 50 35, 48 40 Q 45 50, 40 55 Q 35 60, 32 65 Q 30 70, 30 80 Z" fill="#5a8f5a"/>
  <!-- Leaf veins -->
  <line x1="35" y1="80" x2="38" y2="45" stroke="#ffffff" stroke-width="1.5" opacity="0.8"/>
  <line x1="32" y1="60" x2="40" y2="50" stroke="#ffffff" stroke-width="1" opacity="0.6"/>
  <line x1="33" y1="70" x2="42" y2="55" stroke="#ffffff" stroke-width="1" opacity="0.6"/>
  
  <!-- Water Droplet -->
  <path d="M 70 35 Q 75 30, 80 35 Q 85 40, 85 50 Q 85 65, 75 75 Q 70 80, 65 78 Q 60 75, 60 65 Q 60 50, 65 40 Q 70 35, 70 35 Z" fill="#6bb3c0"/>
  <!-- Droplet reflection -->
  <path d="M 70 60 Q 72 58, 75 60 Q 73 65, 70 65 Z" fill="#4a8a9a" opacity="0.6"/>
</svg>

